<?xml version="1.0" encoding="utf-8"?>
<!-- Generator: Adobe Illustrator 16.0.3, SVG Export Plug-In . SVG Version: 6.00 Build 0)  -->
<!DOCTYPE svg PUBLIC "-//W3C//DTD SVG 1.1//EN" "http://www.w3.org/Graphics/SVG/1.1/DTD/svg11.dtd">
<svg version="1.1" id="Ebene_2" xmlns="http://www.w3.org/2000/svg" xmlns:xlink="http://www.w3.org/1999/xlink" x="0px" y="0px"
	 width="138px" height="232.91px" viewBox="0 0 138 232.91" enable-background="new 0 0 138 232.91" xml:space="preserve">
<path fill="#B2B2B2" d="M93.5,25.251h-49c-19.023,0-34.5,15.477-34.5,34.5V163.91c0,32.533,26.467,59,59,59s59-26.467,59-59V59.751
	C128,40.728,112.523,25.251,93.5,25.251z M119,59.751v21.5H86V78.41c0-7.814-5.306-14.396-12.5-16.376V34.251h20
	C107.561,34.251,119,45.69,119,59.751z M69,70.41c4.411,0,8,3.589,8,8v36.222c0,4.411-3.589,8-8,8s-8-3.588-8-8V78.41
	C61,73.999,64.589,70.41,69,70.41z M44.5,34.251h20v27.783C57.306,64.014,52,70.595,52,78.41v2.841H19v-21.5
	C19,45.69,30.439,34.251,44.5,34.251z M69,213.91c-27.57,0-50-22.43-50-50V90.251h33v24.38c0,9.374,7.626,17,17,17s17-7.626,17-17
	v-24.38h33v73.659C119,191.48,96.57,213.91,69,213.91z"/>
<path fill="#E95032" d="M69,70.41c4.411,0,8,3.589,8,8v36.222c0,4.411-3.589,8-8,8s-8-3.588-8-8V78.41
	C61,73.999,64.589,70.41,69,70.41z"/>
<path fill-rule="evenodd" clip-rule="evenodd" fill="#E95032" d="M79.688,48.342V33.089H99L69,10L39,33.089h19.313v15.253H79.688z"
	/>
<path fill-rule="evenodd" clip-rule="evenodd" fill="#E95032" d="M58.312,140.333v15.253H39l30,23.089l30-23.089H79.687v-15.253
	H58.312z"/>
</svg>
