<?xml version="1.0" encoding="utf-8"?>
<!-- Generator: Adobe Illustrator 16.0.3, SVG Export Plug-In . SVG Version: 6.00 Build 0)  -->
<!DOCTYPE svg PUBLIC "-//W3C//DTD SVG 1.1//EN" "http://www.w3.org/Graphics/SVG/1.1/DTD/svg11.dtd">
<svg version="1.1" id="Ebene_2" xmlns="http://www.w3.org/2000/svg" xmlns:xlink="http://www.w3.org/1999/xlink" x="0px" y="0px"
	 width="459.25px" height="232.91px" viewBox="0 0 459.25 232.91" enable-background="new 0 0 459.25 232.91" xml:space="preserve">
<path fill="#B2B2B2" d="M414.75,25.251h-49c-19.023,0-34.5,15.477-34.5,34.5V163.91c0,32.533,26.467,59,59,59s59-26.467,59-59
	V59.751C449.25,40.728,433.773,25.251,414.75,25.251z M440.25,59.751v21.5h-33V78.41c0-7.814-5.306-14.396-12.5-16.376V34.251h20
	C428.811,34.251,440.25,45.69,440.25,59.751z M390.25,70.41c4.411,0,8,3.589,8,8v36.222c0,4.411-3.589,8-8,8s-8-3.588-8-8V78.41
	C382.25,73.999,385.839,70.41,390.25,70.41z M365.75,34.251h20v27.783c-7.194,1.98-12.5,8.562-12.5,16.376v2.841h-33v-21.5
	C340.25,45.69,351.689,34.251,365.75,34.251z M390.25,213.91c-27.57,0-50-22.43-50-50V90.251h33v24.38c0,9.374,7.626,17,17,17
	s17-7.626,17-17v-24.38h33v73.659C440.25,191.48,417.82,213.91,390.25,213.91z"/>
<path fill="#E95032" d="M365.75,34.251h20v27.783c-7.194,1.98-12.5,8.562-12.5,16.376v2.841h-33v-21.5
	C340.25,45.69,351.689,34.251,365.75,34.251z"/>
<g>
	<path fill="#B2B2B2" d="M50.192,131.234l7.846-0.686c0.371,3.144,1.236,5.723,2.594,7.739c1.357,2.015,3.466,3.645,6.325,4.888
		c2.857,1.243,6.073,1.865,9.646,1.865c3.173,0,5.975-0.473,8.404-1.415c2.429-0.944,4.237-2.238,5.424-3.88
		c1.186-1.646,1.779-3.438,1.779-5.381c0-1.974-0.573-3.694-1.715-5.167c-1.143-1.473-3.029-2.709-5.659-3.708
		c-1.688-0.659-5.417-1.681-11.191-3.067c-5.773-1.386-9.818-2.694-12.134-3.923c-3.001-1.572-5.237-3.523-6.709-5.853
		c-1.473-2.33-2.208-4.938-2.208-7.825c0-3.173,0.901-6.138,2.701-8.896c1.801-2.759,4.431-4.852,7.889-6.282
		c3.458-1.429,7.303-2.143,11.534-2.143c4.659,0,8.768,0.75,12.327,2.25c3.559,1.501,6.295,3.709,8.211,6.625
		c1.914,2.916,2.943,6.217,3.086,9.904l-7.974,0.6c-0.429-3.973-1.88-6.974-4.352-9.004c-2.473-2.029-6.125-3.044-10.955-3.044
		c-5.031,0-8.697,0.922-10.997,2.765c-2.301,1.844-3.452,4.067-3.452,6.667c0,2.258,0.815,4.116,2.444,5.574
		c1.601,1.458,5.782,2.952,12.542,4.48c6.76,1.529,11.397,2.866,13.914,4.009c3.658,1.688,6.359,3.823,8.103,6.41
		c1.743,2.587,2.615,5.566,2.615,8.94c0,3.343-0.958,6.495-2.872,9.454c-1.916,2.958-4.667,5.26-8.254,6.901
		c-3.587,1.646-7.625,2.467-12.112,2.467c-5.688,0-10.455-0.83-14.299-2.487c-3.845-1.657-6.86-4.151-9.047-7.482
		C51.456,139.202,50.305,135.437,50.192,131.234z"/>
	<path fill="#B2B2B2" d="M110.604,151.429V88.573h7.718v22.552c3.601-4.173,8.146-6.26,13.635-6.26c3.372,0,6.302,0.665,8.789,1.994
		c2.486,1.329,4.266,3.167,5.338,5.509c1.072,2.344,1.608,5.746,1.608,10.205v28.856h-7.717v-28.856
		c0-3.858-0.837-6.667-2.509-8.425c-1.672-1.758-4.037-2.637-7.095-2.637c-2.288,0-4.438,0.594-6.454,1.78
		c-2.015,1.186-3.451,2.794-4.309,4.823c-0.857,2.03-1.286,4.831-1.286,8.405v24.91H110.604z"/>
	<path fill="#B2B2B2" d="M159.481,97.448v-8.875h7.718v8.875H159.481z M159.481,151.429v-45.535h7.718v45.535H159.481z"/>
	<path fill="#B2B2B2" d="M180.791,151.429v-39.531h-6.817v-6.003h6.817v-4.844c0-3.059,0.272-5.332,0.815-6.817
		c0.743-2,2.051-3.624,3.923-4.867c1.872-1.243,4.495-1.864,7.868-1.864c2.171,0,4.573,0.257,7.203,0.771l-1.158,6.731
		c-1.602-0.285-3.116-0.429-4.545-0.429c-2.344,0-4.002,0.5-4.973,1.5c-0.972,1.001-1.458,2.873-1.458,5.617v4.202h8.875v6.003
		h-8.875v39.531H180.791z"/>
	<path fill="#B2B2B2" d="M220.193,144.526l1.115,6.817c-2.172,0.457-4.116,0.686-5.831,0.686c-2.802,0-4.974-0.443-6.517-1.329
		c-1.543-0.886-2.63-2.052-3.258-3.494c-0.629-1.444-0.943-4.48-0.943-9.11v-26.198h-5.66v-6.003h5.66V94.619l7.674-4.631v15.907
		h7.761v6.003h-7.761v26.626c0,2.201,0.136,3.616,0.407,4.245c0.272,0.628,0.714,1.129,1.33,1.5
		c0.615,0.372,1.494,0.558,2.637,0.558C217.664,144.826,218.793,144.726,220.193,144.526z"/>
</g>
<path fill="#B2B2B2" d="M292.261,140.021V123.41h-16.488v-6.943h16.488V99.979h7.024v16.487h16.488v6.943h-16.488v16.611H292.261z"
	/>
<path fill="#B2B2B2" d="M237,194.501H34.5c-13.509,0-24.5-10.99-24.5-24.5V70c0-13.509,10.991-24.5,24.5-24.5H237
	c13.509,0,24.5,10.991,24.5,24.5v100C261.5,183.511,250.509,194.501,237,194.501z M34.5,54.5C25.953,54.5,19,61.454,19,70v100
	c0,8.547,6.953,15.5,15.5,15.5H237c8.547,0,15.5-6.953,15.5-15.5V70c0-8.547-6.953-15.5-15.5-15.5H34.5z"/>
</svg>
