<?xml version="1.0" encoding="utf-8"?>
<!-- Generator: Adobe Illustrator 16.0.3, SVG Export Plug-In . SVG Version: 6.00 Build 0)  -->
<!DOCTYPE svg PUBLIC "-//W3C//DTD SVG 1.1//EN" "http://www.w3.org/Graphics/SVG/1.1/DTD/svg11.dtd">
<svg version="1.1" id="Ebene_1" xmlns="http://www.w3.org/2000/svg" xmlns:xlink="http://www.w3.org/1999/xlink" x="0px" y="0px"
	 width="100px" height="100px" viewBox="0 0 100 100" enable-background="new 0 0 100 100" xml:space="preserve">
<path fill-rule="evenodd" clip-rule="evenodd" fill="#FFFFFF" d="M47.721,80.097c0-9.358,0-18.542,0-27.791
	c-9.239,0-18.448,0-27.814,0c0.386,0.396,0.702,0.717,1.016,1.039c2.437,2.505,4.006,5.455,4.547,8.922
	c0.117,0.751,0.164,1.514,0.223,2.271c0.038,0.476,0.051,0.986-0.49,1.201c-0.492,0.195-0.817-0.16-1.137-0.472
	c-1.342-1.308-2.652-2.651-4.038-3.911c-4.346-3.952-9.136-7.314-14.083-10.461C4.678,50.09,4.68,49.878,5.982,49.08
	c6.568-4.026,12.665-8.649,17.999-14.236c0.041-0.042,0.082-0.084,0.124-0.125c0.321-0.302,0.647-0.675,1.139-0.436
	c0.467,0.227,0.459,0.7,0.442,1.151c-0.171,4.433-1.752,8.257-4.918,11.396c-0.247,0.245-0.524,0.459-0.712,0.843
	c9.191,0,18.382,0,27.639,0c0-9.189,0-18.395,0-27.71c-0.239,0.216-0.432,0.372-0.603,0.55c-3.156,3.282-7.023,4.97-11.559,5.16
	c-0.232,0.009-0.475,0.021-0.696-0.034c-0.608-0.151-0.789-0.604-0.453-1.131c0.14-0.218,0.335-0.406,0.524-0.587
	C40.465,18.6,45.071,12.527,49.079,5.982c0.799-1.305,1.014-1.31,1.817-0.047c3.509,5.519,7.3,10.825,11.827,15.571
	c0.768,0.805,1.568,1.579,2.354,2.367c0.124,0.124,0.3,0.224,0.366,0.373c0.135,0.303,0.38,0.722,0.27,0.926
	c-0.142,0.261-0.597,0.514-0.901,0.497c-1.164-0.068-2.339-0.167-3.481-0.397c-3.192-0.644-5.874-2.251-8.162-4.541
	c-0.244-0.244-0.439-0.538-0.656-0.809c-0.064,0.038-0.128,0.076-0.191,0.114c0,9.195,0,18.389,0,27.651c9.192,0,18.399,0,27.714,0
	c-0.213-0.233-0.369-0.426-0.546-0.596c-3.28-3.157-4.97-7.024-5.163-11.559c-0.01-0.232-0.019-0.475,0.036-0.697
	c0.146-0.605,0.6-0.791,1.131-0.458c0.219,0.138,0.405,0.334,0.587,0.523c5.323,5.554,11.392,10.165,17.938,14.171
	c0.101,0.061,0.202,0.119,0.302,0.181c0.911,0.574,0.912,0.901-0.021,1.494c-4.106,2.606-8.142,5.319-11.841,8.483
	c-2.179,1.863-4.221,3.885-6.322,5.838c-0.398,0.37-0.743,0.945-1.396,0.627c-0.593-0.289-0.432-0.905-0.407-1.417
	c0.205-4.412,1.906-8.156,5.063-11.238c0.205-0.201,0.458-0.354,0.688-0.53c-0.039-0.064-0.077-0.128-0.116-0.192
	c-9.193,0-18.387,0-27.651,0c0,9.204,0,18.413,0,27.778c0.306-0.301,0.546-0.531,0.78-0.768c2.526-2.549,5.522-4.209,9.085-4.776
	c0.808-0.129,1.629-0.177,2.445-0.24c0.447-0.034,0.925-0.019,1.115,0.488c0.184,0.491-0.157,0.82-0.471,1.142
	c-1.328,1.362-2.693,2.692-3.973,4.1c-3.932,4.325-7.267,9.1-10.4,14.02c-0.807,1.266-1.019,1.261-1.815-0.04
	c-4.006-6.546-8.615-12.616-14.17-17.94c-0.37-0.354-0.901-0.708-0.617-1.32c0.276-0.597,0.888-0.46,1.405-0.435
	c4.569,0.231,8.433,1.996,11.567,5.341C47.366,79.771,47.475,79.863,47.721,80.097z"/>
</svg>
