<?xml version="1.0" encoding="utf-8"?>
<!-- Generator: Adobe Illustrator 16.0.3, SVG Export Plug-In . SVG Version: 6.00 Build 0)  -->
<!DOCTYPE svg PUBLIC "-//W3C//DTD SVG 1.1//EN" "http://www.w3.org/Graphics/SVG/1.1/DTD/svg11.dtd">
<svg version="1.1" id="Ebene_1" xmlns="http://www.w3.org/2000/svg" xmlns:xlink="http://www.w3.org/1999/xlink" x="0px" y="0px"
	 width="100px" height="100px" viewBox="0 0 100 100" enable-background="new 0 0 100 100" xml:space="preserve">
<path fill="#FFFFFF" d="M50.866,69.791c-0.096,0-0.195-0.002-0.298-0.004c-0.094-0.002-0.192-0.004-0.297-0.004h-1.695v-6.35
	l1.617-0.076c0.102-0.004,0.202-0.01,0.299-0.016c0.222-0.012,0.453-0.023,0.692-0.027c8.099-0.123,15.084-1.021,21.35-2.746
	c4.064-1.117,8.734-2.668,12.547-5.691c1.043-0.83,2.023-1.897,2.832-3.09c0.896-1.318,0.882-2.709-0.04-4.251
	c-1.192-1.993-3.117-3.327-4.659-4.268c-3.454-2.106-7.505-3.477-10.893-4.402c0.627,2.18,1.522,5.248,2.251,7.714l0.477,1.611
	l-6.151,1.878l-0.865-2.91c-0.283-0.948-0.562-1.88-0.836-2.813c-0.201-0.675-0.402-1.35-0.604-2.025
	c-0.607-2.027-1.232-4.123-1.8-6.209c-0.248-0.919-0.188-2.246,0.51-3.137c2.021-2.583,4.039-5.069,6.175-7.702
	c0.621-0.766,1.244-1.535,1.871-2.309l1.066-1.32l5.003,4.055l-5.571,6.897c0.616,0.168,1.222,0.337,1.833,0.521
	c3.823,1.149,8.77,2.891,13.102,6.192c1.315,1.004,2.444,2.067,3.35,3.159c3.959,4.765,3.816,10.376-0.382,15.011
	c-2.556,2.821-5.824,4.962-10.596,6.942c-5.542,2.3-11.674,3.821-18.227,4.519c-2.724,0.291-5.484,0.457-8.153,0.617
	c-1.143,0.068-2.325,0.141-3.481,0.219C51.158,69.785,51.023,69.791,50.866,69.791z"/>
<path fill="#FFFFFF" d="M23.185,80.355l-5.058-3.908l7.276-9.775c-1.121-0.33-2.197-0.652-3.288-1.02
	c-4.929-1.658-8.636-3.586-11.667-6.07c-0.809-0.662-1.572-1.391-2.267-2.166C6.085,55.082,4.985,52.402,5,49.671
	c0.016-2.729,1.142-5.398,3.258-7.718c2.565-2.813,5.835-4.949,10.602-6.925c5.542-2.298,11.675-3.815,18.229-4.511
	c2.762-0.293,5.564-0.457,8.274-0.615c1.159-0.068,2.357-0.138,3.531-0.217c0.21-0.014,0.449-0.014,0.723-0.009
	c0.095,0.001,0.195,0.003,0.302,0.003h1.695v6.489l-2.677-0.003c-0.185,0-0.371,0.001-0.556,0.003
	c-6.395,0.08-12.138,0.701-17.557,1.897c-4.813,1.063-10.398,2.612-15.344,6.043c-1.575,1.093-2.649,2.184-3.379,3.433
	c-0.896,1.534-0.872,2.963,0.076,4.497c1.225,1.981,3.161,3.307,4.71,4.242c2.362,1.425,5.18,2.645,8.55,3.697
	c-1.094-2.688-2.643-6.482-3.686-9.011l-0.641-1.556l5.927-2.499l1.162,2.798c0.358,0.864,0.71,1.71,1.06,2.557
	c0.422,1.021,0.843,2.043,1.263,3.064c1.031,2.506,2.097,5.096,3.166,7.63c0.615,1.46,0.441,2.843-0.518,4.11
	c-2.777,3.672-8.893,11.826-8.955,11.908L23.185,80.355z"/>
</svg>
