<?xml version="1.0" encoding="utf-8"?>
<!-- Generator: Adobe Illustrator 16.0.3, SVG Export Plug-In . SVG Version: 6.00 Build 0)  -->
<!DOCTYPE svg PUBLIC "-//W3C//DTD SVG 1.1//EN" "http://www.w3.org/Graphics/SVG/1.1/DTD/svg11.dtd">
<svg version="1.1" id="Ebene_1" xmlns="http://www.w3.org/2000/svg" xmlns:xlink="http://www.w3.org/1999/xlink" x="0px" y="0px"
	 width="100px" height="100px" viewBox="0 0 100 100" enable-background="new 0 0 100 100" xml:space="preserve">
<g>
	<path fill="#FFFFFF" d="M92.788,77.558c-2.379-3.249-6.342-4.939-10.333-4.409l-3.848-5.289l6.226-8.517
		c5.952-8.128,4.064-18.633,3.978-19.08c-0.15-0.781-0.906-1.293-1.688-1.143c-0.358,0.069-0.677,0.271-0.892,0.566L73.578,56.878
		c-0.684-0.407-1.567-0.184-1.976,0.499c-0.116,0.195-0.185,0.414-0.2,0.64l0,0L67.8,53.103l0,0l-1.527-1.988l-8.315-11.37
		c-0.075-0.097-0.162-0.185-0.259-0.26c-0.223-0.18-0.493-0.291-0.778-0.317l0,0c-0.13-0.014-0.26-0.014-0.39,0
		c-0.472,0.111-0.856,0.452-1.022,0.908c-0.005,0.077-0.005,0.153,0,0.23c-0.039,0.181-0.067,0.364-0.087,0.547v0.13v0.245
		c-0.346,2.781-0.907,11.298,4.107,18.157l5.375,7.58h-1.441c-0.796,0-1.44,0.646-1.44,1.441s0.645,1.44,1.44,1.44h0.735
		l-2.421,3.301c-0.478-0.068-0.959-0.103-1.441-0.102c-6.072-0.026-11.017,4.874-11.044,10.946c-0.016,3.518,1.652,6.83,4.487,8.912
		c4.924,3.567,11.808,2.468,15.375-2.456c2.35-3.243,2.753-7.507,1.053-11.134l1.874-2.551l1.858,2.551
		c-2.581,5.497-0.218,12.045,5.278,14.627c5.497,2.581,12.045,0.218,14.627-5.278c1.703-3.627,1.299-7.894-1.056-11.136V77.558z
		 M86.231,44.514c0.158,4.661-1.152,9.253-3.747,13.127l-5.678,7.782l-2.521-3.444v-1.152L86.231,44.514z M67.354,78.379
		c-0.344,0.464-0.378,1.087-0.087,1.585c1.639,2.777,1.463,6.265-0.446,8.863c-2.633,3.636-7.714,4.449-11.351,1.816
		c-3.636-2.633-4.448-7.714-1.816-11.35c1.906-2.633,5.197-3.877,8.368-3.163c0.548,0.108,1.11-0.111,1.44-0.562l3.848-5.261
		l2.883,4.035L67.354,78.379z M88.695,90.6c-3.591,2.68-8.675,1.94-11.354-1.65c-1.966-2.634-2.148-6.193-0.462-9.014
		c0.316-0.481,0.316-1.104,0-1.585l-2.883-4.035l-1.772-2.45l-2.882-4.035l-1.787-2.436l-5.678-7.781
		c-0.364-0.5-0.701-1.02-1.009-1.557l-0.216-0.403c-0.217-0.403-0.418-0.821-0.605-1.239c0-0.145-0.13-0.303-0.202-0.461
		c-0.173-0.418-0.331-0.836-0.476-1.269l-0.129-0.389c-0.772-2.525-1.146-5.156-1.11-7.796l0.26,0.346l0,0l3.603,4.928l0,0
		l3.646,4.972l0,0l3.487,5.016l0,0l0.101,0.129l1.066,1.441l0.433,0.591l0.951,1.297l0,0l0.374,0.519l2.883,4.035l1.786,2.436
		l3.935,5.404c0.33,0.451,0.893,0.67,1.441,0.562c4.375-0.965,8.705,1.799,9.67,6.175C92.453,85.464,91.251,88.691,88.695,90.6z"/>
	<path fill="#FFFFFF" d="M84.992,76.952c-3.931-0.625-7.623,2.054-8.249,5.983c-0.625,3.931,2.054,7.623,5.983,8.249
		c3.931,0.625,7.623-2.054,8.248-5.984c0.301-1.888-0.161-3.818-1.285-5.365C88.567,78.289,86.878,77.253,84.992,76.952z
		 M86.433,87.516c-1.741,1.634-4.477,1.547-6.11-0.194s-1.547-4.478,0.193-6.111c0.26-0.243,0.548-0.453,0.859-0.626
		c0.729-0.542,1.613-0.835,2.521-0.836c0.226-0.021,0.452-0.021,0.678,0c2.352,0.411,3.925,2.651,3.514,5.004
		c-0.189,1.078-0.78,2.046-1.655,2.706V87.516z"/>
	<path fill="#FFFFFF" d="M68.521,7.882h2.882v2.882c0,0.796,0.646,1.441,1.441,1.441s1.441-0.645,1.441-1.441V6.441
		C74.285,5.645,73.64,5,72.844,5h-4.323c-0.796,0-1.441,0.645-1.441,1.441S67.725,7.882,68.521,7.882z"/>
	<path fill="#FFFFFF" d="M74.285,20.232c0-0.796-0.646-1.441-1.441-1.441s-1.441,0.645-1.441,1.441v9.482
		c0,0.796,0.646,1.441,1.441,1.441s1.441-0.645,1.441-1.441V20.232z"/>
	<path fill="#FFFFFF" d="M72.844,37.741c-0.796,0-1.441,0.646-1.441,1.441v9.482c0,0.796,0.646,1.441,1.441,1.441
		s1.441-0.646,1.441-1.441v-9.482C74.285,38.386,73.64,37.741,72.844,37.741z"/>
	<path fill="#FFFFFF" d="M25.894,66.966h-7.508c-0.796,0-1.441,0.646-1.441,1.441s0.645,1.44,1.441,1.44h7.508
		c0.796,0,1.441-0.645,1.441-1.44S26.689,66.966,25.894,66.966z"/>
	<path fill="#FFFFFF" d="M40.895,66.966h-7.494c-0.796,0-1.441,0.646-1.441,1.441s0.645,1.44,1.441,1.44h7.494
		c0.796,0,1.441-0.645,1.441-1.44S41.691,66.966,40.895,66.966z"/>
	<path fill="#FFFFFF" d="M57.353,68.407c0-0.796-0.646-1.441-1.441-1.441h-7.565c-0.796,0-1.441,0.646-1.441,1.441
		s0.646,1.44,1.441,1.44h7.508c0.795,0.032,1.466-0.587,1.497-1.382C57.352,68.446,57.353,68.427,57.353,68.407z"/>
	<path fill="#FFFFFF" d="M10.878,66.966H7.996v-2.882c0-0.796-0.645-1.441-1.441-1.441s-1.441,0.646-1.441,1.441v4.323
		c0,0.796,0.646,1.44,1.441,1.44h4.323c0.795,0,1.441-0.645,1.441-1.44S11.673,66.966,10.878,66.966z"/>
	<path fill="#FFFFFF" d="M6.555,27.438c0.796,0,1.441-0.646,1.441-1.441v-7.609c0-0.796-0.645-1.441-1.441-1.441
		s-1.441,0.645-1.441,1.441v7.609C5.113,26.792,5.759,27.438,6.555,27.438z"/>
	<path fill="#FFFFFF" d="M6.555,42.669c0.796,0,1.441-0.645,1.441-1.441V33.62c0-0.796-0.645-1.441-1.441-1.441
		s-1.441,0.646-1.441,1.441v7.609C5.113,42.024,5.759,42.669,6.555,42.669z"/>
	<path fill="#FFFFFF" d="M6.555,57.901c0.796,0,1.441-0.646,1.441-1.441v-7.608c0-0.796-0.645-1.441-1.441-1.441
		s-1.441,0.646-1.441,1.441v7.608C5.113,57.256,5.759,57.901,6.555,57.901z"/>
	<path fill="#FFFFFF" d="M10.878,5H6.555C5.759,5,5.113,5.645,5.113,6.441v4.323c0,0.796,0.646,1.441,1.441,1.441
		s1.441-0.645,1.441-1.441V7.882h2.882c0.795,0,1.441-0.645,1.441-1.441S11.673,5,10.878,5z"/>
	<path fill="#FFFFFF" d="M43.82,5h-8.243c-0.796,0-1.441,0.645-1.441,1.441s0.645,1.441,1.441,1.441h8.243
		c0.796,0,1.441-0.645,1.441-1.441S44.616,5,43.82,5z"/>
	<path fill="#FFFFFF" d="M52.049,7.882h8.243c0.796,0,1.441-0.645,1.441-1.441S61.088,5,60.292,5h-8.243
		c-0.796,0-1.44,0.645-1.44,1.441S51.253,7.882,52.049,7.882z"/>
	<path fill="#FFFFFF" d="M27.349,5h-8.243c-0.796,0-1.441,0.645-1.441,1.441s0.645,1.441,1.441,1.441h8.243
		c0.796,0,1.441-0.645,1.441-1.441S28.145,5,27.349,5z"/>
	<path fill="#FFFFFF" d="M64.485,78.249c-3.218-2.341-7.725-1.631-10.065,1.587c-2.342,3.218-1.631,7.725,1.587,10.065
		c3.209,2.335,7.702,1.636,10.05-1.564c2.353-3.209,1.659-7.718-1.55-10.071C64.5,78.26,64.492,78.255,64.485,78.249z
		 M63.736,86.579c-0.816,1.107-2.111,1.76-3.487,1.758c-0.903,0.004-1.783-0.284-2.508-0.821c-1.906-1.438-2.285-4.149-0.848-6.055
		c0.66-0.875,1.627-1.467,2.707-1.655c0.22-0.021,0.441-0.021,0.662,0c0.909-0.001,1.794,0.292,2.522,0.836
		C64.651,82.04,65.072,84.667,63.736,86.579z"/>
</g>
</svg>
