<?xml version="1.0" encoding="utf-8"?>
<!-- Generator: Adobe Illustrator 16.0.3, SVG Export Plug-In . SVG Version: 6.00 Build 0)  -->
<!DOCTYPE svg PUBLIC "-//W3C//DTD SVG 1.1//EN" "http://www.w3.org/Graphics/SVG/1.1/DTD/svg11.dtd">
<svg version="1.1" id="Ebene_1" xmlns="http://www.w3.org/2000/svg" xmlns:xlink="http://www.w3.org/1999/xlink" x="0px" y="0px"
	 width="100px" height="100px" viewBox="0 0 100 100" enable-background="new 0 0 100 100" xml:space="preserve">
<path fill="#FFFFFF" d="M88,53H56v-3c0-2-1-3-3-3h-6c-2,0-3,1-3,3v3c-4,0-7,3-7,7v22c0,4,3,7,7,7h44c4,0,7-3,7-7V60
	C95,56,92,53,88,53z M66,84c-7,0-13-6-13-13s6-13,13-13s13,6,13,13S73,84,66,84z"/>
<path fill="#FFFFFF" d="M66,64c4,0,7,3,7,7s-3,7-7,7s-7-3-7-7S62,64,66,64z"/>
<path fill="#FFFFFF" d="M5,11v71h26v-1v-7H14V25h67v22h7h1V11H5z M57,21h-6v-6h6V21z M66,21h-6v-6h6V21z M81,21H69v-6h12V21z"/>
</svg>
