<?xml version="1.0" encoding="utf-8"?>
<!-- Generator: Adobe Illustrator 16.0.3, SVG Export Plug-In . SVG Version: 6.00 Build 0)  -->
<!DOCTYPE svg PUBLIC "-//W3C//DTD SVG 1.1//EN" "http://www.w3.org/Graphics/SVG/1.1/DTD/svg11.dtd">
<svg version="1.1" id="Ebene_1" xmlns="http://www.w3.org/2000/svg" xmlns:xlink="http://www.w3.org/1999/xlink" x="0px" y="0px"
	 width="100px" height="100px" viewBox="0 0 100 100" enable-background="new 0 0 100 100" xml:space="preserve">
<path fill="#FFFFFF" d="M95,86.852L71.696,63.546c4.431-6.085,7.076-13.555,7.076-21.659c0-20.374-16.514-36.886-36.887-36.886
	C21.513,5.001,5,21.513,5,41.887c0,20.372,16.513,36.885,36.885,36.885c8.106,0,15.576-2.645,21.664-7.075l23.304,23.303L95,86.852z
	 M41.885,67.245c-13.981,0-25.359-11.378-25.359-25.358c0-13.983,11.377-25.359,25.359-25.359c13.982,0,25.36,11.376,25.36,25.359
	C67.245,55.867,55.867,67.245,41.885,67.245z"/>
</svg>
