<?xml version="1.0" encoding="utf-8"?>
<!-- Generator: Adobe Illustrator 16.0.3, SVG Export Plug-In . SVG Version: 6.00 Build 0)  -->
<!DOCTYPE svg PUBLIC "-//W3C//DTD SVG 1.1//EN" "http://www.w3.org/Graphics/SVG/1.1/DTD/svg11.dtd">
<svg version="1.1" id="Ebene_1" xmlns="http://www.w3.org/2000/svg" xmlns:xlink="http://www.w3.org/1999/xlink" x="0px" y="0px"
	 width="100px" height="100px" viewBox="0 0 100 100" enable-background="new 0 0 100 100" xml:space="preserve">
<path fill="#FFFFFF" d="M95,90.286L69.044,64.327c5.218-6.274,8.358-14.332,8.358-23.127c0-19.995-16.206-36.201-36.201-36.201
	C21.21,4.999,5,21.205,5,41.199C5,61.19,21.21,77.4,41.201,77.4c8.798,0,16.854-3.141,23.128-8.358l25.956,25.959L95,90.286z
	 M8.811,41.199c0-17.86,14.528-32.39,32.391-32.39c17.858,0,32.391,14.529,32.391,32.39S59.06,73.59,41.201,73.59
	C23.339,73.59,8.811,59.06,8.811,41.199z"/>
</svg>
