<?xml version="1.0" encoding="utf-8"?>
<!-- Generator: Adobe Illustrator 16.0.3, SVG Export Plug-In . SVG Version: 6.00 Build 0)  -->
<!DOCTYPE svg PUBLIC "-//W3C//DTD SVG 1.1//EN" "http://www.w3.org/Graphics/SVG/1.1/DTD/svg11.dtd">
<svg version="1.1" id="Ebene_1" xmlns="http://www.w3.org/2000/svg" xmlns:xlink="http://www.w3.org/1999/xlink" x="0px" y="0px"
	 width="100px" height="100px" viewBox="0 0 100 100" enable-background="new 0 0 100 100" xml:space="preserve">
<path fill="#FFFFFF" d="M91.143,55.73c-0.28,0.334-0.729,0.558-1.172,0.61c-0.057,0-0.113,0-0.171,0
	c-0.443,0-0.834-0.109-1.172-0.391L50,23.744L11.373,55.95c-0.391,0.281-0.838,0.448-1.343,0.391
	c-0.444-0.053-0.892-0.276-1.172-0.61l-3.458-4.134c-0.614-0.725-0.504-1.896,0.224-2.511L45.756,15.65
	c2.348-1.957,6.141-1.957,8.488,0l13.619,11.385V16.151c0-1.005,0.781-1.786,1.787-1.786h10.718c1.005,0,1.786,0.781,1.786,1.786
	v22.775l12.224,10.16c0.729,0.615,0.838,1.786,0.224,2.511L91.143,55.73z M82.154,82.244c0,1.953-1.619,3.573-3.572,3.573H57.146
	V64.381H42.854v21.437H21.419c-1.953,0-3.573-1.62-3.573-3.573V55.45c0-0.11,0.057-0.224,0.057-0.334L50,28.655l32.098,26.461
	c0.057,0.11,0.057,0.224,0.057,0.334V82.244z"/>
</svg>
